<svg width="714" height="701" viewBox="0 0 714 701" fill="none" xmlns="http://www.w3.org/2000/svg">
<path fill-rule="evenodd" clip-rule="evenodd" d="M535.12 696.531C490.285 700.466 444.811 675.769 418.597 639.229C395.427 606.933 409.272 564.411 411.89 524.765C414.114 491.098 409.707 454.542 432.44 429.584C455.425 404.349 492.279 403.128 526.213 399.251C564.938 394.827 605.69 385.01 638.488 406.042C676.442 430.381 708.81 470.845 708.1 515.889C707.405 559.989 665.634 588.353 635.111 620.228C604.972 651.701 578.557 692.719 535.12 696.531Z" fill="url(#paint0_linear_428_1752)"/>
<path fill-rule="evenodd" clip-rule="evenodd" d="M200.964 0.0653265C258.266 -2.38292 289.279 64.5306 325.816 108.752C357.214 146.753 395.566 184.362 393.951 233.635C392.367 281.957 347.723 312.55 317.89 350.59C280.639 398.089 261.101 474.591 200.964 479.713C140.415 484.87 100.663 419.48 62.2754 372.36C29.0405 331.564 -4.4827 286.024 0.493392 233.635C5.18695 184.221 54.017 156.645 86.3419 118.983C123.618 75.5522 143.791 2.50811 200.964 0.0653265Z" fill="url(#paint1_linear_428_1752)"/>
<g clip-path="url(#clip0_428_1752)">
<path d="M349.7 485.138L332.325 476.126C332.325 476.126 326.491 469.716 322.826 466.823C319.162 463.931 318.034 466.055 318.034 466.055L316.493 468.616L320.216 473.779L330.271 482.272L348.238 489.291C348.519 489.75 348.924 490.12 349.408 490.358C349.891 490.596 350.432 490.693 350.968 490.636C351.505 490.58 352.014 490.373 352.437 490.039C352.859 489.706 353.179 489.259 353.358 488.752C353.536 488.245 353.567 487.697 353.446 487.173C353.325 486.649 353.058 486.17 352.675 485.791C352.292 485.413 351.809 485.151 351.283 485.035C350.756 484.919 350.208 484.955 349.701 485.138H349.7Z" fill="#FFB9B9"/>
<path d="M304.507 477.344L303.479 471.067L300.574 470.343C300.574 470.343 298.269 469.635 297.73 474.266C297.192 478.898 297.609 487.545 297.609 487.545L291.712 506.171C291.222 506.399 290.806 506.76 290.514 507.215C290.221 507.669 290.064 508.196 290.061 508.736C290.058 509.275 290.208 509.805 290.495 510.262C290.781 510.72 291.192 511.087 291.68 511.321C292.168 511.554 292.712 511.645 293.249 511.582C293.787 511.519 294.295 511.305 294.715 510.966C295.135 510.626 295.45 510.174 295.623 509.662C295.795 509.151 295.819 508.601 295.69 508.077L303.419 490.441L304.507 477.344Z" fill="#FFB9B9"/>
<path d="M328.532 565.432H332.333L334.141 550.81H328.531L328.532 565.432Z" fill="#FFB9B9"/>
<path d="M287.077 565.432H290.878L292.686 550.81H287.076L287.077 565.432Z" fill="#FFB9B9"/>
<path d="M316.313 461.887H299.269C298.919 461.886 298.582 461.747 298.334 461.5C298.087 461.253 297.947 460.917 297.947 460.568V453.239C297.947 450.634 298.984 448.137 300.83 446.295C302.676 444.454 305.18 443.419 307.791 443.419C310.402 443.419 312.906 444.454 314.752 446.295C316.598 448.137 317.635 450.634 317.635 453.239V460.566C317.635 460.916 317.496 461.252 317.248 461.499C317 461.747 316.664 461.886 316.313 461.887Z" fill="#2F2E41"/>
<path d="M315.154 458.103C315.154 458.103 314.263 466.215 315.518 468.14C316.27 469.315 316.596 470.71 316.441 472.095L310.277 473.917L302.737 470.468C302.737 470.468 309.272 461.596 307.744 458.88C306.216 456.165 315.154 458.103 315.154 458.103Z" fill="#FFB9B9"/>
<path d="M305.84 464.805L299.536 470.173L304.709 486.503L305.876 490.15C305.876 490.15 298.748 496.705 294.337 515.017C289.927 533.329 282.712 557.661 282.712 557.661L297.943 562.009L310.334 520.586L324.907 553.084L326.59 562.696L339.559 558.881L336.499 534.774L321.203 493.046L322.792 481.984C322.792 481.984 325.178 476.463 321.033 470.617L319.731 465.125L315.074 463.98L305.84 464.805Z" fill="#E6E6E6"/>
<path d="M316.147 457.97C318.058 454.481 316.773 450.107 313.275 448.2C309.778 446.293 305.392 447.575 303.48 451.064C301.569 454.553 302.854 458.927 306.352 460.834C309.849 462.741 314.235 461.459 316.147 457.97Z" fill="#FFB9B9"/>
<path d="M319.964 453.973H309.543L309.436 452.481L308.901 453.973H307.297L307.085 451.015L306.026 453.973H302.92V453.826C302.923 451.767 303.744 449.793 305.204 448.337C306.664 446.881 308.643 446.061 310.708 446.059H312.177C314.242 446.061 316.221 446.881 317.681 448.337C319.141 449.793 319.962 451.767 319.964 453.826L319.964 453.973Z" fill="#2F2E41"/>
<path d="M309.457 463.254C309.378 463.254 309.3 463.247 309.222 463.234L301.59 461.891V449.311H309.991L309.782 449.552C306.888 452.919 309.068 458.377 310.625 461.331C310.74 461.547 310.791 461.791 310.772 462.035C310.754 462.28 310.667 462.513 310.521 462.71C310.399 462.879 310.238 463.016 310.053 463.11C309.867 463.205 309.662 463.254 309.454 463.254L309.457 463.254Z" fill="#2F2E41"/>
<path d="M372.568 529.207L305.686 552.793C304.033 553.374 302.216 553.277 300.634 552.523C299.052 551.769 297.834 550.421 297.248 548.773L285.758 516.36C285.175 514.71 285.273 512.898 286.028 511.32C286.784 509.742 288.136 508.528 289.788 507.943L356.67 484.357C358.324 483.776 360.141 483.873 361.723 484.627C363.305 485.38 364.522 486.729 365.109 488.377L376.598 520.79C377.18 522.439 377.083 524.252 376.328 525.83C375.572 527.407 374.22 528.622 372.568 529.207H372.568Z" fill="#F7C16E"/>
<path opacity="0.096" d="M376.599 520.789L376.66 520.961C377.218 522.536 377.126 524.267 376.404 525.775C375.682 527.282 374.389 528.442 372.81 528.999L305.593 552.703C304.014 553.26 302.278 553.168 300.767 552.448C299.256 551.728 298.093 550.439 297.535 548.864L297.474 548.693L376.599 520.789Z" fill="#F2F2F2"/>
<path d="M301.513 515.468C297.08 518.378 291.398 516.188 289.411 512.998L289.728 512.819C293.502 510.472 299.107 511.78 301.513 515.468Z" fill="#F2F2F2"/>
<path d="M357.068 523.723C355.983 524.106 355.006 524.088 354.164 523.671C352.26 522.728 351.369 519.931 350.65 517.684C350.441 517.03 350.244 516.412 350.043 515.908L350.04 515.9C349.691 514.898 349.752 513.8 350.209 512.843C350.667 511.886 351.485 511.148 352.485 510.79L361.481 507.617C362.565 507.235 363.541 507.252 364.381 507.669C366.284 508.611 367.178 511.407 367.896 513.654C368.105 514.309 368.304 514.928 368.505 515.433C368.856 516.435 368.797 517.536 368.339 518.494C367.881 519.453 367.063 520.192 366.061 520.552L357.068 523.723ZM350.417 515.764C350.622 516.281 350.821 516.903 351.031 517.562C351.726 519.738 352.591 522.445 354.342 523.313C355.093 523.685 355.941 523.696 356.934 523.346L365.928 520.175C366.828 519.852 367.565 519.187 367.978 518.326C368.39 517.464 368.445 516.475 368.131 515.573C367.927 515.062 367.727 514.437 367.515 513.775C366.82 511.6 365.955 508.894 364.204 508.027C363.453 507.655 362.606 507.644 361.615 507.994L352.619 511.166C351.72 511.489 350.984 512.153 350.571 513.014C350.159 513.874 350.103 514.862 350.417 515.764L350.417 515.764Z" fill="#F2F2F2"/>
<path d="M299.648 516.516C298.067 517.063 296.364 517.156 294.733 516.785C292.35 516.264 290.187 514.845 289.09 513.083L288.98 512.906L289.475 512.626C293.305 510.246 299.05 511.536 301.53 515.336L301.638 515.502L301.472 515.612C300.903 515.986 300.29 516.289 299.648 516.516ZM289.544 513.046C290.619 514.639 292.618 515.913 294.819 516.395C296.958 516.893 299.208 516.531 301.081 515.387C298.656 511.887 293.282 510.726 289.683 512.967L289.544 513.046Z" fill="#3F3D56"/>
<path d="M301.998 539.78C301.436 540.002 300.825 540.067 300.229 539.968C299.633 539.869 299.075 539.611 298.616 539.22C298.078 538.751 297.67 538.151 297.431 537.479C297.193 536.808 297.132 536.086 297.254 535.384C297.368 534.779 297.647 534.219 298.061 533.763C298.475 533.307 299.007 532.975 299.599 532.802L311.585 528.575C312.154 528.34 312.777 528.266 313.386 528.361C313.994 528.457 314.565 528.718 315.034 529.116C315.571 529.586 315.979 530.185 316.216 530.857C316.454 531.529 316.515 532.25 316.392 532.952C316.155 534.186 315.321 535.095 314.047 535.53L302.061 539.757L301.998 539.78ZM299.673 533.2C299.161 533.357 298.703 533.651 298.346 534.049C297.989 534.447 297.748 534.934 297.648 535.459C297.537 536.091 297.592 536.742 297.807 537.347C298.022 537.952 298.389 538.492 298.874 538.915C299.289 539.266 299.794 539.495 300.333 539.578C300.871 539.66 301.421 539.592 301.923 539.381L313.915 535.152C314.438 535.002 314.91 534.71 315.278 534.308C315.645 533.907 315.894 533.411 315.997 532.877C316.107 532.245 316.052 531.595 315.838 530.99C315.623 530.384 315.256 529.844 314.772 529.422C314.356 529.071 313.85 528.842 313.312 528.759C312.773 528.676 312.222 528.743 311.72 528.953L299.726 533.182L299.671 533.201L299.673 533.2Z" fill="#F2F2F2"/>
<path d="M357.148 514.186L353.37 515.519C353.119 515.607 352.844 515.593 352.604 515.478C352.364 515.364 352.18 515.16 352.091 514.91C352.002 514.66 352.017 514.385 352.132 514.146C352.246 513.907 352.451 513.723 352.702 513.634L356.48 512.302C356.731 512.213 357.006 512.228 357.246 512.342C357.486 512.456 357.67 512.661 357.759 512.911C357.848 513.161 357.833 513.436 357.719 513.675C357.604 513.914 357.399 514.098 357.148 514.186Z" fill="#D6D6E3"/>
<path d="M358.217 517.201L354.439 518.534C354.188 518.622 353.913 518.608 353.673 518.494C353.433 518.379 353.248 518.175 353.16 517.925C353.071 517.675 353.086 517.4 353.2 517.161C353.315 516.922 353.52 516.738 353.771 516.65L357.549 515.317C357.673 515.273 357.805 515.254 357.936 515.261C358.068 515.268 358.196 515.301 358.315 515.357C358.434 515.414 358.54 515.493 358.628 515.591C358.716 515.688 358.784 515.802 358.828 515.926C358.872 516.05 358.891 516.181 358.884 516.312C358.877 516.443 358.844 516.571 358.787 516.69C358.731 516.808 358.651 516.914 358.553 517.002C358.455 517.09 358.341 517.158 358.217 517.201Z" fill="#D6D6E3"/>
<path d="M359.286 520.217L355.507 521.549C355.257 521.638 354.981 521.623 354.742 521.509C354.502 521.395 354.317 521.19 354.229 520.94C354.14 520.69 354.155 520.415 354.269 520.176C354.384 519.937 354.589 519.753 354.839 519.665L358.618 518.332C358.742 518.288 358.874 518.269 359.005 518.276C359.136 518.283 359.265 518.316 359.384 518.372C359.503 518.429 359.609 518.508 359.697 518.606C359.785 518.704 359.853 518.817 359.897 518.941C359.941 519.065 359.96 519.196 359.953 519.327C359.946 519.458 359.913 519.587 359.856 519.705C359.8 519.823 359.72 519.93 359.622 520.017C359.524 520.105 359.41 520.173 359.286 520.217Z" fill="#D6D6E3"/>
<path d="M363.761 511.855L359.982 513.187C359.731 513.276 359.456 513.261 359.216 513.147C358.976 513.033 358.792 512.828 358.703 512.578C358.615 512.328 358.629 512.054 358.744 511.814C358.858 511.575 359.063 511.391 359.314 511.303L363.093 509.97C363.343 509.882 363.619 509.896 363.858 510.011C364.098 510.125 364.283 510.329 364.371 510.579C364.46 510.829 364.445 511.104 364.331 511.343C364.216 511.582 364.011 511.766 363.761 511.855Z" fill="#D6D6E3"/>
<path d="M364.83 514.87L361.051 516.202C360.8 516.291 360.525 516.276 360.285 516.162C360.045 516.048 359.861 515.843 359.772 515.593C359.684 515.343 359.698 515.069 359.813 514.83C359.927 514.59 360.132 514.406 360.383 514.318L364.162 512.985C364.286 512.942 364.417 512.923 364.548 512.93C364.68 512.937 364.809 512.969 364.927 513.026C365.046 513.082 365.152 513.162 365.24 513.259C365.328 513.357 365.396 513.471 365.44 513.594C365.484 513.718 365.503 513.849 365.496 513.98C365.489 514.111 365.456 514.24 365.4 514.358C365.343 514.477 365.263 514.583 365.166 514.671C365.068 514.758 364.954 514.826 364.83 514.87Z" fill="#D6D6E3"/>
<path d="M365.898 517.885L362.12 519.217C361.869 519.305 361.594 519.291 361.354 519.177C361.114 519.062 360.93 518.858 360.841 518.608C360.752 518.358 360.767 518.083 360.882 517.844C360.996 517.605 361.201 517.421 361.452 517.333L365.23 516C365.354 515.956 365.486 515.937 365.617 515.944C365.749 515.951 365.877 515.984 365.996 516.04C366.115 516.097 366.221 516.176 366.309 516.274C366.397 516.371 366.465 516.485 366.509 516.609C366.553 516.733 366.572 516.864 366.565 516.995C366.558 517.126 366.525 517.255 366.469 517.373C366.412 517.491 366.332 517.598 366.234 517.685C366.137 517.773 366.022 517.841 365.898 517.885Z" fill="#D6D6E3"/>
<path d="M367.627 495.46L288.486 523.335L288.62 523.712L367.761 495.837L367.627 495.46Z" fill="#3F3D56"/>
<path d="M372.568 529.207L305.686 552.793C304.033 553.374 302.216 553.277 300.634 552.523C299.052 551.769 297.834 550.421 297.248 548.773L285.758 516.36C285.175 514.71 285.273 512.898 286.028 511.32C286.784 509.742 288.136 508.528 289.788 507.943L356.67 484.357C358.324 483.776 360.141 483.873 361.723 484.627C363.305 485.38 364.522 486.729 365.109 488.377L376.598 520.79C377.18 522.439 377.083 524.252 376.328 525.83C375.572 527.407 374.22 528.622 372.568 529.207H372.568ZM289.922 508.319C288.369 508.868 287.099 510.01 286.389 511.492C285.679 512.974 285.588 514.677 286.135 516.227L297.625 548.64C298.176 550.188 299.32 551.455 300.806 552.163C302.292 552.871 303.999 552.962 305.552 552.416L372.435 528.83C373.987 528.28 375.257 527.139 375.967 525.657C376.677 524.175 376.768 522.472 376.221 520.923L364.731 488.51C364.181 486.962 363.037 485.694 361.551 484.986C360.065 484.278 358.358 484.186 356.804 484.732L289.922 508.319Z" fill="#3F3D56"/>
<path d="M341.359 567.939C340.238 568.916 338.792 569.442 337.304 569.412C334.558 569.372 329.427 569.29 328.236 569.24C326.643 569.168 327.171 567.781 327.223 566.826V566.731C327.241 565.774 327.429 563.698 327.747 563.374C328.065 563.05 329.153 564.818 329.153 564.818C329.153 564.818 331.277 565.449 331.862 563.555C332.446 561.661 333.633 561.478 333.633 561.478C334.172 561.24 334.199 562.669 334.199 562.669L338.696 565.032L341.334 565.454C341.419 565.493 341.495 565.534 341.568 565.573C342.76 566.255 342.232 567.169 341.359 567.939Z" fill="#090814"/>
<path d="M300.332 567.939C299.211 568.916 297.766 569.442 296.277 569.412C293.531 569.372 288.401 569.29 287.209 569.24C285.616 569.168 286.144 567.781 286.196 566.826V566.731C286.214 565.774 286.402 563.698 286.72 563.374C287.038 563.05 288.126 564.818 288.126 564.818C288.126 564.818 290.251 565.449 290.835 563.555C291.419 561.661 292.606 561.478 292.606 561.478C293.145 561.24 293.172 562.669 293.172 562.669L297.669 565.032L300.307 565.454C300.392 565.493 300.468 565.534 300.541 565.573C301.734 566.255 301.205 567.169 300.332 567.939Z" fill="#090814"/>
<path d="M480.54 422.864H479.476V393.813C479.476 389.354 477.7 385.077 474.539 381.924C471.378 378.771 467.09 377 462.62 377H400.913C398.699 377 396.508 377.435 394.462 378.28C392.417 379.125 390.559 380.363 388.994 381.924C387.429 383.486 386.187 385.339 385.34 387.379C384.493 389.419 384.057 391.605 384.057 393.813V553.187C384.057 557.646 385.833 561.923 388.994 565.076C392.155 568.229 396.443 570 400.913 570H462.62C467.09 570 471.378 568.229 474.539 565.076C477.7 561.922 479.476 557.646 479.476 553.187V443.543H480.54L480.54 422.864Z" fill="#090814"/>
<path d="M463.033 381.374H454.978C455.349 382.279 455.49 383.262 455.39 384.235C455.29 385.209 454.951 386.142 454.404 386.954C453.857 387.766 453.118 388.432 452.252 388.892C451.387 389.352 450.421 389.592 449.44 389.592H414.089C413.108 389.592 412.142 389.352 411.277 388.892C410.411 388.432 409.672 387.766 409.125 386.954C408.578 386.142 408.239 385.209 408.139 384.235C408.039 383.262 408.18 382.279 408.551 381.374H401.027C397.688 381.374 394.486 382.696 392.125 385.051C389.764 387.406 388.438 390.6 388.438 393.93V553.07C388.438 554.719 388.764 556.351 389.396 557.875C390.029 559.398 390.956 560.783 392.125 561.948C393.294 563.114 394.682 564.039 396.209 564.67C397.737 565.301 399.374 565.626 401.027 565.626H463.03C466.369 565.626 469.571 564.303 471.932 561.949C474.293 559.594 475.619 556.4 475.619 553.07V393.93C475.619 390.6 474.293 387.407 471.933 385.052C469.573 382.698 466.372 381.374 463.033 381.374H463.033Z" fill="white"/>
<path d="M280 569.646C280 569.835 280.366 569.985 280.822 569.985H488.178C488.634 569.985 489 569.834 489 569.646C489 569.459 488.634 569.306 488.178 569.306H280.822C280.366 569.306 280 569.458 280 569.646Z" fill="#F2F2F2"/>
<path d="M466.02 447.094H398.579C397.949 447.093 397.344 446.843 396.899 446.398C396.453 445.954 396.202 445.351 396.202 444.722V437.484C396.202 436.855 396.453 436.253 396.899 435.808C397.344 435.364 397.949 435.114 398.579 435.113H466.02C466.65 435.114 467.255 435.364 467.7 435.808C468.146 436.253 468.397 436.855 468.397 437.484V444.723C468.397 445.351 468.146 445.954 467.7 446.399C467.255 446.843 466.65 447.093 466.02 447.094V447.094ZM398.579 435.361C398.015 435.361 397.474 435.585 397.076 435.983C396.677 436.381 396.453 436.92 396.452 437.482V444.721C396.453 445.284 396.677 445.823 397.076 446.221C397.474 446.618 398.015 446.842 398.579 446.843H466.02C466.584 446.842 467.125 446.618 467.523 446.221C467.922 445.823 468.146 445.284 468.147 444.721V437.484C468.147 436.921 467.922 436.382 467.524 435.984C467.125 435.586 466.584 435.363 466.02 435.362L398.579 435.361Z" fill="#CCCCCC"/>
<path d="M407.692 445.231C406.874 445.231 406.074 444.989 405.393 444.535C404.713 444.082 404.182 443.437 403.869 442.683C403.556 441.929 403.474 441.099 403.634 440.298C403.793 439.498 404.187 438.762 404.766 438.185C405.345 437.608 406.082 437.215 406.885 437.055C407.688 436.896 408.52 436.978 409.276 437.29C410.032 437.603 410.678 438.132 411.133 438.81C411.587 439.489 411.83 440.287 411.83 441.103C411.83 442.198 411.394 443.248 410.618 444.022C409.842 444.796 408.79 445.231 407.692 445.231Z" fill="#F7C16E"/>
<path d="M459.911 444.473H415.743C415.61 444.475 415.478 444.451 415.355 444.402C415.231 444.352 415.119 444.279 415.025 444.186C414.93 444.093 414.855 443.983 414.803 443.86C414.752 443.738 414.726 443.607 414.726 443.475C414.726 443.342 414.752 443.211 414.803 443.089C414.855 442.967 414.93 442.856 415.025 442.763C415.119 442.67 415.231 442.597 415.355 442.548C415.478 442.498 415.61 442.474 415.743 442.476H459.911C460.044 442.474 460.176 442.498 460.299 442.548C460.422 442.597 460.535 442.67 460.629 442.763C460.724 442.856 460.799 442.967 460.85 443.089C460.902 443.211 460.928 443.342 460.928 443.475C460.928 443.607 460.902 443.738 460.85 443.86C460.799 443.983 460.724 444.093 460.629 444.186C460.535 444.279 460.422 444.352 460.299 444.402C460.176 444.451 460.044 444.475 459.911 444.473Z" fill="#F7C16E"/>
<path d="M445.521 440.23H415.742C415.609 440.232 415.477 440.208 415.354 440.159C415.231 440.109 415.118 440.036 415.024 439.943C414.929 439.85 414.854 439.739 414.802 439.617C414.751 439.495 414.725 439.364 414.725 439.231C414.725 439.099 414.751 438.968 414.802 438.846C414.854 438.723 414.929 438.613 415.024 438.52C415.118 438.427 415.231 438.354 415.354 438.304C415.477 438.255 415.609 438.231 415.742 438.233H445.521C445.654 438.231 445.786 438.255 445.909 438.304C446.033 438.354 446.145 438.427 446.24 438.52C446.334 438.613 446.409 438.723 446.461 438.846C446.512 438.968 446.538 439.099 446.538 439.231C446.538 439.364 446.512 439.495 446.461 439.617C446.409 439.739 446.334 439.85 446.24 439.943C446.145 440.036 446.033 440.109 445.909 440.159C445.786 440.208 445.654 440.232 445.521 440.23Z" fill="#F7C16E"/>
<path d="M466.02 465.64H398.579C397.949 465.639 397.344 465.389 396.899 464.945C396.453 464.5 396.202 463.897 396.202 463.269V456.03C396.202 455.402 396.453 454.799 396.899 454.355C397.344 453.91 397.949 453.66 398.579 453.659H466.02C466.65 453.66 467.255 453.91 467.7 454.355C468.146 454.799 468.397 455.402 468.397 456.03V463.269C468.397 463.898 468.146 464.5 467.7 464.945C467.255 465.389 466.65 465.64 466.02 465.64V465.64ZM398.579 453.907C398.015 453.908 397.474 454.132 397.076 454.529C396.677 454.927 396.453 455.466 396.452 456.029V463.267C396.453 463.83 396.677 464.369 397.076 464.767C397.474 465.165 398.015 465.388 398.579 465.389H466.02C466.584 465.388 467.125 465.165 467.523 464.767C467.922 464.369 468.146 463.83 468.147 463.267V456.03C468.147 455.468 467.922 454.928 467.524 454.531C467.125 454.133 466.584 453.909 466.02 453.908L398.579 453.907Z" fill="#CCCCCC"/>
<path d="M407.692 463.777C406.874 463.777 406.074 463.535 405.393 463.081C404.713 462.628 404.182 461.983 403.869 461.229C403.556 460.475 403.474 459.645 403.634 458.845C403.793 458.044 404.187 457.309 404.766 456.731C405.345 456.154 406.082 455.761 406.885 455.602C407.688 455.443 408.52 455.524 409.276 455.837C410.032 456.149 410.678 456.678 411.133 457.357C411.587 458.035 411.83 458.833 411.83 459.65C411.83 460.744 411.394 461.794 410.618 462.568C409.842 463.342 408.79 463.777 407.692 463.777Z" fill="#E6E6E6"/>
<path d="M459.911 463.019H415.743C415.61 463.022 415.478 462.997 415.355 462.948C415.231 462.899 415.119 462.826 415.025 462.733C414.93 462.64 414.855 462.529 414.803 462.407C414.752 462.285 414.726 462.153 414.726 462.021C414.726 461.889 414.752 461.757 414.803 461.635C414.855 461.513 414.93 461.402 415.025 461.309C415.119 461.216 415.231 461.143 415.355 461.094C415.478 461.045 415.61 461.02 415.743 461.023H459.911C460.044 461.02 460.176 461.045 460.299 461.094C460.422 461.143 460.535 461.216 460.629 461.309C460.724 461.402 460.799 461.513 460.85 461.635C460.902 461.757 460.928 461.889 460.928 462.021C460.928 462.153 460.902 462.285 460.85 462.407C460.799 462.529 460.724 462.64 460.629 462.733C460.535 462.826 460.422 462.899 460.299 462.948C460.176 462.997 460.044 463.022 459.911 463.019Z" fill="#E6E6E6"/>
<path d="M445.521 458.776H415.742C415.609 458.778 415.477 458.754 415.354 458.705C415.231 458.656 415.118 458.583 415.024 458.49C414.929 458.397 414.854 458.286 414.802 458.164C414.751 458.041 414.725 457.91 414.725 457.778C414.725 457.645 414.751 457.514 414.802 457.392C414.854 457.27 414.929 457.159 415.024 457.066C415.118 456.973 415.231 456.9 415.354 456.851C415.477 456.802 415.609 456.777 415.742 456.779H445.521C445.654 456.777 445.786 456.802 445.909 456.851C446.033 456.9 446.145 456.973 446.24 457.066C446.334 457.159 446.409 457.27 446.461 457.392C446.512 457.514 446.538 457.645 446.538 457.778C446.538 457.91 446.512 458.041 446.461 458.164C446.409 458.286 446.334 458.397 446.24 458.49C446.145 458.583 446.033 458.656 445.909 458.705C445.786 458.754 445.654 458.778 445.521 458.776Z" fill="#E6E6E6"/>
<path d="M466.02 483.919H398.579C397.949 483.918 397.344 483.668 396.899 483.223C396.453 482.779 396.202 482.176 396.202 481.548V474.309C396.202 473.681 396.453 473.078 396.899 472.633C397.344 472.189 397.949 471.939 398.579 471.938H466.02C466.65 471.939 467.255 472.189 467.7 472.633C468.146 473.078 468.397 473.681 468.397 474.309V481.548C468.397 482.177 468.146 482.779 467.7 483.224C467.255 483.668 466.65 483.918 466.02 483.919V483.919ZM398.579 472.186C398.015 472.187 397.474 472.41 397.076 472.808C396.677 473.206 396.453 473.745 396.452 474.308V481.546C396.453 482.109 396.677 482.648 397.076 483.046C397.474 483.444 398.015 483.667 398.579 483.668H466.02C466.584 483.667 467.125 483.444 467.523 483.046C467.922 482.648 468.146 482.109 468.147 481.546V474.309C468.147 473.747 467.922 473.207 467.524 472.809C467.125 472.412 466.584 472.188 466.02 472.187L398.579 472.186Z" fill="#CCCCCC"/>
<path d="M407.692 482.056C406.874 482.056 406.074 481.814 405.393 481.36C404.713 480.907 404.182 480.262 403.869 479.508C403.556 478.754 403.474 477.924 403.634 477.123C403.793 476.323 404.187 475.587 404.766 475.01C405.345 474.433 406.082 474.04 406.885 473.881C407.688 473.721 408.52 473.803 409.276 474.115C410.032 474.428 410.678 474.957 411.133 475.636C411.587 476.314 411.83 477.112 411.83 477.929C411.83 479.023 411.394 480.073 410.618 480.847C409.842 481.621 408.79 482.056 407.692 482.056Z" fill="#E6E6E6"/>
<path d="M459.911 481.298H415.743C415.61 481.3 415.478 481.276 415.355 481.227C415.231 481.178 415.119 481.104 415.025 481.012C414.93 480.919 414.855 480.808 414.803 480.686C414.752 480.563 414.726 480.432 414.726 480.3C414.726 480.167 414.752 480.036 414.803 479.914C414.855 479.792 414.93 479.681 415.025 479.588C415.119 479.495 415.231 479.422 415.355 479.373C415.478 479.324 415.61 479.299 415.743 479.301H459.911C460.044 479.299 460.176 479.324 460.299 479.373C460.422 479.422 460.535 479.495 460.629 479.588C460.724 479.681 460.799 479.792 460.85 479.914C460.902 480.036 460.928 480.167 460.928 480.3C460.928 480.432 460.902 480.563 460.85 480.686C460.799 480.808 460.724 480.919 460.629 481.012C460.535 481.104 460.422 481.178 460.299 481.227C460.176 481.276 460.044 481.3 459.911 481.298Z" fill="#E6E6E6"/>
<path d="M445.521 477.055H415.742C415.609 477.057 415.477 477.033 415.354 476.984C415.231 476.935 415.118 476.861 415.024 476.768C414.929 476.675 414.854 476.565 414.802 476.442C414.751 476.32 414.725 476.189 414.725 476.057C414.725 475.924 414.751 475.793 414.802 475.671C414.854 475.549 414.929 475.438 415.024 475.345C415.118 475.252 415.231 475.179 415.354 475.13C415.477 475.08 415.609 475.056 415.742 475.058H445.521C445.654 475.056 445.786 475.08 445.909 475.13C446.033 475.179 446.145 475.252 446.24 475.345C446.334 475.438 446.409 475.549 446.461 475.671C446.512 475.793 446.538 475.924 446.538 476.057C446.538 476.189 446.512 476.32 446.461 476.442C446.409 476.565 446.334 476.675 446.24 476.768C446.145 476.861 446.033 476.935 445.909 476.984C445.786 477.033 445.654 477.057 445.521 477.055Z" fill="#E6E6E6"/>
<path d="M466.02 502.466H398.579C397.949 502.465 397.344 502.215 396.899 501.77C396.453 501.326 396.202 500.723 396.202 500.094V492.856C396.202 492.227 396.453 491.625 396.899 491.18C397.344 490.736 397.949 490.486 398.579 490.485H466.02C466.65 490.486 467.255 490.736 467.7 491.18C468.146 491.625 468.397 492.227 468.397 492.856V500.095C468.397 500.723 468.146 501.326 467.7 501.771C467.255 502.215 466.65 502.465 466.02 502.466V502.466ZM398.579 490.733C398.015 490.734 397.474 490.957 397.076 491.355C396.677 491.753 396.453 492.292 396.452 492.855V500.093C396.453 500.656 396.677 501.195 397.076 501.593C397.474 501.99 398.015 502.214 398.579 502.215H466.02C466.584 502.214 467.125 501.99 467.523 501.593C467.922 501.195 468.146 500.656 468.147 500.093V492.856C468.147 492.294 467.922 491.754 467.524 491.356C467.125 490.958 466.584 490.735 466.02 490.734L398.579 490.733Z" fill="#CCCCCC"/>
<path d="M407.692 500.603C406.874 500.603 406.074 500.361 405.393 499.907C404.713 499.454 404.182 498.809 403.869 498.055C403.556 497.301 403.474 496.471 403.634 495.67C403.793 494.87 404.187 494.134 404.766 493.557C405.345 492.98 406.082 492.587 406.885 492.427C407.688 492.268 408.52 492.35 409.276 492.662C410.032 492.975 410.678 493.504 411.133 494.182C411.587 494.861 411.83 495.659 411.83 496.475C411.83 497.57 411.394 498.62 410.618 499.394C409.842 500.168 408.79 500.603 407.692 500.603Z" fill="#E6E6E6"/>
<path d="M459.911 499.845H415.743C415.61 499.847 415.478 499.823 415.355 499.774C415.231 499.725 415.119 499.651 415.025 499.558C414.93 499.466 414.855 499.355 414.803 499.233C414.752 499.11 414.726 498.979 414.726 498.847C414.726 498.714 414.752 498.583 414.803 498.461C414.855 498.339 414.93 498.228 415.025 498.135C415.119 498.042 415.231 497.969 415.355 497.92C415.478 497.87 415.61 497.846 415.743 497.848H459.911C460.044 497.846 460.176 497.87 460.299 497.92C460.422 497.969 460.535 498.042 460.629 498.135C460.724 498.228 460.799 498.339 460.85 498.461C460.902 498.583 460.928 498.714 460.928 498.847C460.928 498.979 460.902 499.11 460.85 499.233C460.799 499.355 460.724 499.466 460.629 499.558C460.535 499.651 460.422 499.725 460.299 499.774C460.176 499.823 460.044 499.847 459.911 499.845Z" fill="#E6E6E6"/>
<path d="M445.521 495.602H415.742C415.609 495.604 415.477 495.58 415.354 495.531C415.231 495.481 415.118 495.408 415.024 495.315C414.929 495.222 414.854 495.112 414.802 494.989C414.751 494.867 414.725 494.736 414.725 494.604C414.725 494.471 414.751 494.34 414.802 494.218C414.854 494.095 414.929 493.985 415.024 493.892C415.118 493.799 415.231 493.726 415.354 493.676C415.477 493.627 415.609 493.603 415.742 493.605H445.521C445.654 493.603 445.786 493.627 445.909 493.676C446.033 493.726 446.145 493.799 446.24 493.892C446.334 493.985 446.409 494.095 446.461 494.218C446.512 494.34 446.538 494.471 446.538 494.604C446.538 494.736 446.512 494.867 446.461 494.989C446.409 495.112 446.334 495.222 446.24 495.315C446.145 495.408 446.033 495.481 445.909 495.531C445.786 495.58 445.654 495.604 445.521 495.602Z" fill="#E6E6E6"/>
<path d="M465.75 520.745H398.309C397.679 520.744 397.075 520.494 396.629 520.049C396.184 519.605 395.933 519.002 395.932 518.373V511.135C395.933 510.506 396.184 509.904 396.629 509.459C397.075 509.015 397.679 508.764 398.309 508.764H465.75C466.381 508.764 466.985 509.015 467.431 509.459C467.876 509.904 468.127 510.506 468.128 511.135V518.374C468.127 519.002 467.876 519.605 467.431 520.049C466.985 520.494 466.381 520.744 465.75 520.745V520.745ZM398.309 509.012C397.746 509.012 397.205 509.236 396.806 509.634C396.407 510.032 396.183 510.571 396.182 511.133V518.372C396.183 518.934 396.407 519.474 396.806 519.872C397.205 520.269 397.746 520.493 398.309 520.494H465.75C466.314 520.493 466.855 520.269 467.254 519.872C467.653 519.474 467.877 518.934 467.878 518.372V511.135C467.877 510.572 467.653 510.033 467.254 509.635C466.855 509.237 466.315 509.013 465.75 509.013L398.309 509.012Z" fill="#CCCCCC"/>
<path d="M407.423 518.882C406.604 518.882 405.804 518.639 405.124 518.186C404.443 517.732 403.913 517.088 403.6 516.334C403.286 515.58 403.205 514.75 403.364 513.949C403.524 513.148 403.918 512.413 404.497 511.836C405.075 511.259 405.813 510.866 406.615 510.706C407.418 510.547 408.25 510.629 409.006 510.941C409.762 511.254 410.408 511.783 410.863 512.461C411.318 513.14 411.56 513.938 411.56 514.754C411.56 515.849 411.125 516.899 410.349 517.673C409.572 518.447 408.52 518.882 407.423 518.882Z" fill="#E6E6E6"/>
<path d="M459.641 518.124H415.473C415.341 518.126 415.209 518.102 415.085 518.053C414.962 518.003 414.85 517.93 414.755 517.837C414.66 517.744 414.585 517.634 414.534 517.511C414.482 517.389 414.456 517.258 414.456 517.125C414.456 516.993 414.482 516.862 414.534 516.74C414.585 516.617 414.66 516.507 414.755 516.414C414.85 516.321 414.962 516.248 415.085 516.198C415.209 516.149 415.341 516.125 415.473 516.127H459.641C459.774 516.125 459.906 516.149 460.029 516.198C460.153 516.248 460.265 516.321 460.36 516.414C460.454 516.507 460.53 516.617 460.581 516.74C460.632 516.862 460.659 516.993 460.659 517.125C460.659 517.258 460.632 517.389 460.581 517.511C460.53 517.634 460.454 517.744 460.36 517.837C460.265 517.93 460.153 518.003 460.029 518.053C459.906 518.102 459.774 518.126 459.641 518.124Z" fill="#E6E6E6"/>
<path d="M445.252 513.881H415.472C415.34 513.883 415.208 513.859 415.084 513.809C414.961 513.76 414.849 513.687 414.754 513.594C414.659 513.501 414.584 513.39 414.533 513.268C414.482 513.146 414.455 513.015 414.455 512.882C414.455 512.75 414.482 512.619 414.533 512.496C414.584 512.374 414.659 512.263 414.754 512.171C414.849 512.078 414.961 512.004 415.084 511.955C415.208 511.906 415.34 511.882 415.472 511.884H445.252C445.384 511.882 445.516 511.906 445.64 511.955C445.763 512.004 445.875 512.078 445.97 512.171C446.065 512.263 446.14 512.374 446.191 512.496C446.243 512.619 446.269 512.75 446.269 512.882C446.269 513.015 446.243 513.146 446.191 513.268C446.14 513.39 446.065 513.501 445.97 513.594C445.875 513.687 445.763 513.76 445.64 513.809C445.516 513.859 445.384 513.883 445.252 513.881Z" fill="#E6E6E6"/>
<path d="M432.299 428.171C441.229 428.171 448.468 420.951 448.468 412.044C448.468 403.136 441.229 395.916 432.299 395.916C423.369 395.916 416.129 403.136 416.129 412.044C416.129 420.951 423.369 428.171 432.299 428.171Z" fill="#F7C16E"/>
<path d="M453.583 535.152H410.476C410.437 535.152 410.4 535.137 410.373 535.109C410.345 535.082 410.33 535.045 410.33 535.007C410.33 534.968 410.345 534.931 410.373 534.904C410.4 534.877 410.437 534.861 410.476 534.861H453.583C453.622 534.861 453.659 534.877 453.686 534.904C453.713 534.931 453.729 534.968 453.729 535.007C453.729 535.045 453.713 535.082 453.686 535.109C453.659 535.137 453.622 535.152 453.583 535.152Z" fill="#CCCCCC"/>
<path d="M453.583 540.091H410.476C410.437 540.091 410.4 540.076 410.373 540.049C410.345 540.022 410.33 539.985 410.33 539.946C410.33 539.908 410.345 539.871 410.373 539.843C410.4 539.816 410.437 539.801 410.476 539.801H453.583C453.622 539.801 453.659 539.816 453.686 539.843C453.713 539.871 453.729 539.908 453.729 539.946C453.729 539.985 453.713 540.022 453.686 540.049C453.659 540.076 453.622 540.091 453.583 540.091Z" fill="#CCCCCC"/>
<path d="M453.583 545.03H410.476C410.437 545.03 410.4 545.015 410.373 544.988C410.345 544.961 410.33 544.924 410.33 544.885C410.33 544.846 410.345 544.81 410.373 544.782C410.4 544.755 410.437 544.74 410.476 544.74H453.583C453.622 544.74 453.659 544.755 453.686 544.782C453.713 544.81 453.729 544.846 453.729 544.885C453.729 544.924 453.713 544.961 453.686 544.988C453.659 545.015 453.622 545.03 453.583 545.03Z" fill="#CCCCCC"/>
<path d="M453.583 549.969H410.476C410.437 549.969 410.4 549.953 410.373 549.926C410.345 549.899 410.33 549.862 410.33 549.823C410.33 549.785 410.345 549.748 410.373 549.721C410.4 549.694 410.437 549.678 410.476 549.678H453.583C453.622 549.678 453.659 549.694 453.686 549.721C453.713 549.748 453.729 549.785 453.729 549.823C453.729 549.862 453.713 549.899 453.686 549.926C453.659 549.953 453.622 549.969 453.583 549.969Z" fill="#CCCCCC"/>
<path d="M425.5 554.907H421.277C421.084 554.907 420.899 554.83 420.762 554.694C420.626 554.558 420.549 554.373 420.549 554.181V545.321C420.549 545.129 420.625 544.944 420.762 544.807C420.898 544.671 421.084 544.594 421.277 544.594H425.5C425.693 544.594 425.878 544.671 426.015 544.807C426.151 544.943 426.228 545.127 426.228 545.32V554.18C426.228 554.275 426.21 554.37 426.173 554.458C426.136 554.546 426.083 554.626 426.015 554.694C425.947 554.762 425.867 554.815 425.779 554.852C425.69 554.888 425.595 554.907 425.5 554.907Z" fill="#F2F2F2"/>
<path d="M435.111 554.908H430.888C430.695 554.908 430.51 554.831 430.374 554.695C430.237 554.559 430.16 554.374 430.16 554.181V540.382C430.16 540.189 430.237 540.004 430.374 539.868C430.51 539.732 430.695 539.655 430.888 539.655H435.112C435.305 539.655 435.49 539.732 435.626 539.868C435.763 540.004 435.839 540.189 435.84 540.382V554.181C435.839 554.374 435.763 554.558 435.626 554.695C435.49 554.831 435.305 554.907 435.112 554.907L435.111 554.908Z" fill="#F2F2F2"/>
<path d="M445.014 554.907H440.792C440.599 554.907 440.414 554.83 440.277 554.694C440.141 554.558 440.064 554.374 440.063 554.181V535.588C440.064 535.395 440.141 535.21 440.277 535.074C440.414 534.938 440.599 534.862 440.792 534.861H445.015C445.208 534.862 445.393 534.938 445.529 535.074C445.666 535.21 445.743 535.395 445.743 535.588V554.181C445.743 554.373 445.666 554.558 445.529 554.694C445.393 554.83 445.208 554.907 445.015 554.907L445.014 554.907Z" fill="#F2F2F2"/>
<path d="M453.583 554.908H410.476C410.437 554.908 410.4 554.892 410.373 554.865C410.345 554.838 410.33 554.801 410.33 554.762C410.33 554.724 410.345 554.687 410.373 554.66C410.4 554.632 410.437 554.617 410.476 554.617H453.583C453.622 554.617 453.659 554.632 453.686 554.66C453.713 554.687 453.729 554.724 453.729 554.762C453.729 554.801 453.713 554.838 453.686 554.865C453.659 554.892 453.622 554.908 453.583 554.908Z" fill="#CCCCCC"/>
<path d="M431.81 420.645V418.972C430.401 418.887 429.28 418.488 428.446 417.773C427.611 417.058 427.17 416.074 427.122 414.82H429.508C429.517 415.1 429.585 415.374 429.709 415.625C429.832 415.876 430.008 416.098 430.224 416.276C430.682 416.632 431.233 416.849 431.811 416.902V412.903L431.084 412.712C430.108 412.501 429.199 412.05 428.441 411.401C428.127 411.107 427.879 410.749 427.716 410.351C427.552 409.953 427.477 409.524 427.494 409.095C427.481 408.402 427.675 407.722 428.051 407.14C428.436 406.562 428.964 406.092 429.584 405.775C430.276 405.419 431.033 405.206 431.81 405.15V403.44H432.898V405.141C433.695 405.174 434.476 405.378 435.187 405.738C435.805 406.053 436.331 406.52 436.715 407.095C437.086 407.66 437.287 408.319 437.296 408.994H434.947C434.928 408.759 434.863 408.531 434.756 408.321C434.648 408.112 434.5 407.925 434.32 407.773C433.912 407.447 433.417 407.249 432.896 407.203V410.975L433.504 411.129C434.165 411.29 434.805 411.525 435.413 411.829C435.999 412.116 436.509 412.536 436.901 413.056C437.302 413.624 437.504 414.307 437.476 415.001C437.49 415.52 437.389 416.037 437.182 416.513C436.974 416.99 436.664 417.415 436.274 417.76C435.473 418.483 434.347 418.887 432.896 418.972V420.645H431.81ZM432.898 416.893C433.472 416.844 434.017 416.624 434.462 416.259C434.651 416.105 434.802 415.91 434.905 415.689C435.008 415.468 435.06 415.227 435.056 414.984C435.066 414.76 435.017 414.537 434.914 414.338C434.81 414.139 434.656 413.97 434.467 413.849C433.983 413.548 433.454 413.327 432.9 413.193L432.898 416.893ZM431.81 410.696V407.214C431.3 407.264 430.82 407.473 430.436 407.811C430.278 407.955 430.152 408.131 430.067 408.328C429.981 408.524 429.939 408.736 429.942 408.95C429.931 409.173 429.979 409.394 430.079 409.593C430.18 409.792 430.331 409.961 430.516 410.085C430.914 410.354 431.35 410.56 431.81 410.696Z" fill="#F2F2F2"/>
</g>
<defs>
<linearGradient id="paint0_linear_428_1752" x1="561.023" y1="695.932" x2="551.978" y2="394.068" gradientUnits="userSpaceOnUse">
<stop stop-color="#F7C16E"/>
<stop offset="1" stop-color="#F7C16E" stop-opacity="0"/>
</linearGradient>
<linearGradient id="paint1_linear_428_1752" x1="197" y1="0" x2="197" y2="480" gradientUnits="userSpaceOnUse">
<stop stop-color="#F7C16E"/>
<stop offset="1" stop-color="#F7C16E" stop-opacity="0"/>
</linearGradient>
<clipPath id="clip0_428_1752">
<rect width="209" height="193" fill="white" transform="translate(280 377)"/>
</clipPath>
</defs>
</svg>
