<svg width="645" height="623" viewBox="0 0 645 623" fill="none" xmlns="http://www.w3.org/2000/svg">
<path fill-rule="evenodd" clip-rule="evenodd" d="M608.919 462.4C611.419 498.215 653.345 529.489 639.931 562.795C626.865 595.237 583.408 602.634 549.3 610.43C518.548 617.459 485.384 618.662 457.166 604.568C431.317 591.657 425.769 558.055 404.752 538.233C377.568 512.593 329.575 507.886 317.259 472.613C304.566 436.26 320.903 394.166 343.581 363.041C365.836 332.496 401.491 313.947 438.496 306.218C472.243 299.169 505.201 312.06 538.084 322.415C570.009 332.468 611.036 335.452 626.143 365.307C641.357 395.373 606.572 428.788 608.919 462.4Z" fill="url(#paint0_linear_428_1634)"/>
<path fill-rule="evenodd" clip-rule="evenodd" d="M158.44 0.966712C184.066 -3.84673 209.754 10.1283 231.247 24.8815C252.323 39.3485 262.959 62.9954 278.437 83.3345C298.923 110.255 335.206 129.968 336.921 163.746C338.63 197.424 312.486 227.37 286.859 249.306C263.075 269.666 231.556 278.313 200.329 280.671C173.027 282.732 146.087 274.959 122.112 261.744C101.323 250.285 92.0421 226.682 74.1302 211.109C52.1199 191.974 15.959 187.223 5.21665 160.117C-5.61654 132.781 0.923869 97.2231 20.1914 75.0042C39.1572 53.1332 75.8009 62.9552 101.326 49.2854C123.766 37.2678 133.419 5.66658 158.44 0.966712Z" fill="url(#paint1_linear_428_1634)"/>
<g clip-path="url(#clip0_428_1634)">
<path d="M335.834 309H275.833C271.126 309.005 266.613 310.88 263.285 314.214C259.957 317.548 258.085 322.068 258.079 326.783V332.216C257.956 332.182 257.827 332.177 257.702 332.201C257.576 332.226 257.458 332.28 257.357 332.358C257.256 332.436 257.174 332.537 257.119 332.652C257.063 332.767 257.035 332.894 257.037 333.022V337.199C257.035 337.327 257.063 337.454 257.119 337.569C257.175 337.684 257.256 337.784 257.357 337.863C257.458 337.941 257.576 337.994 257.702 338.019C257.827 338.044 257.956 338.039 258.079 338.005V344.33C257.956 344.296 257.827 344.291 257.702 344.316C257.576 344.34 257.458 344.394 257.357 344.472C257.256 344.55 257.174 344.651 257.119 344.766C257.063 344.881 257.035 345.008 257.037 345.136V355.58C257.035 355.708 257.063 355.834 257.119 355.949C257.174 356.065 257.256 356.165 257.357 356.243C257.458 356.322 257.576 356.375 257.702 356.4C257.827 356.424 257.956 356.42 258.079 356.386V360.204C257.956 360.17 257.827 360.166 257.702 360.19C257.576 360.215 257.458 360.269 257.357 360.347C257.256 360.425 257.174 360.526 257.119 360.641C257.063 360.756 257.035 360.882 257.037 361.01V371.454C257.035 371.582 257.063 371.709 257.119 371.824C257.174 371.939 257.256 372.04 257.357 372.118C257.458 372.196 257.576 372.25 257.702 372.274C257.827 372.299 257.956 372.294 258.079 372.26V482.549C258.085 487.263 259.957 491.784 263.285 495.118C266.613 498.451 271.126 500.327 275.833 500.332H335.834C340.541 500.327 345.054 498.452 348.382 495.118C351.71 491.784 353.582 487.263 353.587 482.549V326.783C353.582 322.068 351.71 317.548 348.382 314.214C345.054 310.88 340.541 309.005 335.834 309ZM349.833 482.549C349.829 486.266 348.353 489.831 345.728 492.46C343.104 495.089 339.545 496.567 335.834 496.571H275.833C272.121 496.567 268.563 495.089 265.938 492.46C263.314 489.831 261.838 486.266 261.834 482.549V326.783C261.838 323.065 263.314 319.501 265.938 316.872C268.563 314.243 272.121 312.765 275.833 312.76H335.834C339.545 312.765 343.104 314.243 345.728 316.872C348.353 319.501 349.829 323.065 349.833 326.783V482.549Z" fill="#3F3D56"/>
<path d="M335.834 498.66H275.833C271.569 498.655 267.48 496.956 264.465 493.936C261.449 490.915 259.753 486.82 259.749 482.549V326.782C259.753 322.511 261.449 318.415 264.465 315.395C267.48 312.374 271.569 310.676 275.833 310.671H335.834C340.098 310.676 344.187 312.374 347.202 315.395C350.218 318.415 351.914 322.511 351.919 326.782V482.549C351.914 486.82 350.218 490.915 347.202 493.936C344.187 496.956 340.098 498.655 335.834 498.66Z" fill="#E6E6E6"/>
<path d="M337.316 496.154H274.35C271.474 496.151 268.716 495.005 266.682 492.967C264.648 490.93 263.504 488.167 263.501 485.286V324.042C263.504 321.161 264.648 318.399 266.682 316.361C268.716 314.324 271.474 313.178 274.35 313.175H282.562C283.037 313.175 283.493 313.365 283.829 313.701C284.165 314.038 284.355 314.495 284.355 314.971C284.357 316.378 284.915 317.726 285.908 318.721C286.901 319.716 288.248 320.275 289.652 320.277H321.181C322.585 320.275 323.932 319.716 324.925 318.721C325.918 317.726 326.476 316.378 326.478 314.971C326.478 314.495 326.667 314.038 327.004 313.701C327.34 313.365 327.795 313.175 328.271 313.175H337.316C340.193 313.178 342.951 314.324 344.985 316.361C347.019 318.399 348.163 321.161 348.166 324.042V485.286C348.163 488.167 347.019 490.93 344.985 492.967C342.951 495.005 340.193 496.151 337.316 496.154Z" fill="white"/>
<path d="M308.544 316.833H301.037C300.816 316.833 300.604 316.745 300.447 316.588C300.291 316.431 300.203 316.219 300.203 315.997C300.203 315.776 300.291 315.563 300.447 315.406C300.604 315.25 300.816 315.162 301.037 315.162H308.544C308.765 315.162 308.978 315.25 309.134 315.406C309.29 315.563 309.378 315.776 309.378 315.997C309.378 316.219 309.29 316.431 309.134 316.588C308.978 316.745 308.765 316.833 308.544 316.833H308.544Z" fill="white"/>
<path d="M313.757 316.624C313.988 316.624 314.174 316.437 314.174 316.206C314.174 315.976 313.988 315.789 313.757 315.789C313.527 315.789 313.34 315.976 313.34 316.206C313.34 316.437 313.527 316.624 313.757 316.624Z" fill="white"/>
<path d="M350.193 345.813H261.391V346.765H350.193V345.813Z" fill="#E6E6E6"/>
<path d="M350.193 364.854H261.391V365.807H350.193V364.854Z" fill="#E6E6E6"/>
<path d="M350.193 404.207H261.391V405.159H350.193V404.207Z" fill="#E6E6E6"/>
<path d="M350.193 443.559H261.391V444.511H350.193V443.559Z" fill="#E6E6E6"/>
<path d="M350.193 474.342H261.391V475.294H350.193V474.342Z" fill="#E6E6E6"/>
<path d="M325.881 346.289H324.931V404.682H325.881V346.289Z" fill="#E6E6E6"/>
<path d="M281.426 404.666H280.475V474.818H281.426V404.666Z" fill="#E6E6E6"/>
<path d="M348.165 423.909H280.951V424.861H348.165V423.909Z" fill="#E6E6E6"/>
<path d="M325.983 474.818H325.033V496.153H325.983V474.818Z" fill="#E6E6E6"/>
<path d="M325.248 384.92H263.344V385.873H325.248V384.92Z" fill="#E6E6E6"/>
<path d="M276.272 312.576L275.395 312.943L289.404 346.473L290.28 346.105L276.272 312.576Z" fill="#E6E6E6"/>
<path d="M319.415 320.279H318.464V346.289H319.415V320.279Z" fill="#E6E6E6"/>
<path d="M343.924 360.729C343.924 369.26 330.758 389.137 326.909 394.764C326.793 394.934 326.637 395.073 326.455 395.169C326.273 395.265 326.071 395.315 325.865 395.315C325.66 395.315 325.457 395.265 325.275 395.169C325.094 395.073 324.938 394.934 324.822 394.764C320.974 389.137 307.807 369.26 307.807 360.729C307.807 355.931 309.709 351.33 313.096 347.938C316.483 344.545 321.076 342.64 325.866 342.64C330.655 342.64 335.249 344.545 338.636 347.938C342.022 351.33 343.925 355.931 343.925 360.729H343.924Z" fill="#FF2600"/>
<path d="M325.865 368.663C330.94 368.663 335.053 364.543 335.053 359.46C335.053 354.377 330.94 350.256 325.865 350.256C320.791 350.256 316.677 354.377 316.677 359.46C316.677 364.543 320.791 368.663 325.865 368.663Z" fill="white"/>
<path d="M325.263 404.956L290.467 474.594L291.317 475.02L326.113 405.382L325.263 404.956Z" fill="#E6E6E6"/>
<path d="M438 500.683C438 500.757 437.97 500.827 437.918 500.879C437.866 500.931 437.795 500.961 437.721 500.961H201.279C201.242 500.962 201.205 500.955 201.171 500.942C201.136 500.928 201.104 500.908 201.078 500.882C201.051 500.856 201.03 500.825 201.016 500.791C201.001 500.757 200.994 500.72 200.994 500.683C200.994 500.646 201.001 500.609 201.016 500.575C201.03 500.54 201.051 500.509 201.078 500.483C201.104 500.458 201.136 500.437 201.171 500.424C201.205 500.41 201.242 500.404 201.279 500.405H437.722C437.795 500.405 437.866 500.434 437.918 500.486C437.97 500.538 438 500.609 438 500.683Z" fill="#CCCCCC"/>
<path d="M325.865 408.649C328.139 408.649 329.983 406.802 329.983 404.523C329.983 402.245 328.139 400.398 325.865 400.398C323.59 400.398 321.746 402.245 321.746 404.523C321.746 406.802 323.59 408.649 325.865 408.649Z" fill="#FF2600"/>
<path d="M383.851 359.416C382.13 361.712 374.578 364.399 372.407 365.135C372.342 365.157 372.272 365.163 372.203 365.152C372.135 365.141 372.07 365.114 372.015 365.072C371.96 365.031 371.915 364.976 371.886 364.913C371.856 364.851 371.842 364.782 371.845 364.712C371.944 362.419 372.408 354.404 374.128 352.108C374.6 351.451 375.198 350.895 375.888 350.472C376.577 350.049 377.344 349.768 378.143 349.646C378.942 349.524 379.758 349.562 380.542 349.759C381.326 349.957 382.063 350.309 382.709 350.794C383.356 351.28 383.899 351.891 384.307 352.589C384.716 353.288 384.981 354.062 385.087 354.864C385.193 355.667 385.139 356.483 384.926 357.264C384.714 358.045 384.348 358.776 383.85 359.414L383.851 359.416Z" fill="#F2F2F2"/>
<path d="M379.246 358.517C380.953 358.517 382.338 357.131 382.338 355.42C382.338 353.709 380.953 352.323 379.246 352.323C377.538 352.323 376.153 353.709 376.153 355.42C376.153 357.131 377.538 358.517 379.246 358.517Z" fill="white"/>
<path d="M370.158 368.939C370.924 368.939 371.544 368.317 371.544 367.551C371.544 366.784 370.924 366.162 370.158 366.162C369.393 366.162 368.772 366.784 368.772 367.551C368.772 368.317 369.393 368.939 370.158 368.939Z" fill="#F2F2F2"/>
<path d="M233.094 422.404C235.625 426.278 235.544 439.224 235.466 442.924C235.464 443.036 235.435 443.146 235.381 443.244C235.327 443.342 235.25 443.425 235.156 443.486C235.063 443.547 234.956 443.585 234.845 443.595C234.733 443.606 234.621 443.589 234.518 443.546C231.1 442.137 219.224 437.031 216.693 433.157C215.979 432.078 215.485 430.869 215.24 429.599C214.995 428.328 215.002 427.022 215.263 425.755C215.523 424.487 216.031 423.284 216.757 422.214C217.484 421.144 218.414 420.228 219.495 419.52C220.576 418.811 221.786 418.323 223.055 418.085C224.325 417.846 225.629 417.861 226.893 418.129C228.156 418.398 229.355 418.913 230.419 419.647C231.483 420.38 232.392 421.317 233.093 422.404L233.094 422.404Z" fill="#F2F2F2"/>
<path d="M224.517 432.198C227.271 432.198 229.503 429.962 229.503 427.204C229.503 424.445 227.271 422.209 224.517 422.209C221.763 422.209 219.53 424.445 219.53 427.204C219.53 429.962 221.763 432.198 224.517 432.198Z" fill="white"/>
<path d="M237.888 449.906C239.123 449.906 240.123 448.904 240.123 447.667C240.123 446.431 239.123 445.428 237.888 445.428C236.654 445.428 235.653 446.431 235.653 447.667C235.653 448.904 236.654 449.906 237.888 449.906Z" fill="#F2F2F2"/>
<path d="M362.079 379.57L356.981 379.768L357.236 386.334L362.334 386.135L362.079 379.57Z" fill="#FF2600"/>
<path d="M339.082 402.564C339.082 402.564 332.022 399.185 332.135 402.103C332.248 405.022 339.251 406.941 339.251 406.941L339.082 402.564Z" fill="#FFB9B9"/>
<path d="M342.956 427.254C342.956 427.254 339.625 435.42 338.395 441.313C337.164 447.205 335.29 455.315 337.701 461.066C340.111 466.817 346.966 483.72 347.036 485.544C347.107 487.367 346.449 489.22 347.906 489.163C349.362 489.106 357.289 486.606 357.611 485.498C357.932 484.39 354.906 481.585 354.906 481.585L347.433 458.13L355.229 442.85L360.853 465.646L361.954 494.096C361.954 494.096 367.359 492.425 368.144 493.855C368.144 493.855 370.566 490.474 370.874 489C371.181 487.527 369.73 459.456 369.73 459.456C369.73 459.456 374.692 427.482 370.686 427.638C366.68 427.793 350.992 418.174 342.956 427.254Z" fill="#090814"/>
<path d="M347.848 487.703C347.848 487.703 344.153 495.883 343.803 496.262C343.453 496.642 341.045 500.388 342.866 500.317C344.687 500.246 348.986 498.253 352.15 495.208C355.315 492.162 359.487 486.886 359.108 486.535C358.73 486.185 356.139 485.189 356.139 485.189L347.848 487.703Z" fill="#090814"/>
<path d="M362.612 492.244C362.612 492.244 362.389 495.906 361.717 497.393C361.046 498.88 361.13 501.069 362.951 500.998C364.771 500.927 369.477 500.014 369.477 500.014C369.477 500.014 369.757 497.812 369.378 497.461C369 497.11 367.388 493.155 368.074 492.032C368.76 490.91 362.612 492.244 362.612 492.244Z" fill="#090814"/>
<path d="M365.306 373.417C365.306 373.417 369.187 379.477 370.7 380.879C372.213 382.282 367.956 385.369 367.956 385.369L360.338 386.396C360.338 386.396 360.433 379.452 360.041 378.736C359.649 378.021 365.306 373.417 365.306 373.417Z" fill="#FFB9B9"/>
<path d="M358.683 381.346C358.683 381.346 360.253 384.208 361.709 384.151C363.166 384.094 370.701 380.879 371.022 379.771C371.343 378.662 373.517 387.711 373.517 387.711L355.082 420.208L350.585 417.094L352.764 398.014L354.553 387.716L358.683 381.346Z" fill="#FF2600"/>
<path d="M371.701 410.43C370.966 411.971 370.507 413.577 370.57 415.222C370.573 415.295 370.576 415.368 370.583 415.441C370.757 418.817 371.998 422.721 372.444 425.561C372.767 427.597 372.675 429.084 371.485 429.433C368.6 430.276 371.906 430.878 360.744 434.599C349.583 438.321 347.635 435.109 347.607 434.379C347.579 433.65 349.188 428.107 348.809 427.757C348.431 427.407 343.517 432.346 342.032 431.673C340.547 431 341.862 427.296 341.862 427.296C341.862 427.296 345.207 419.495 345.137 417.671C345.066 415.847 350.204 407.246 350.204 407.246L353.698 384.462C353.698 384.462 355.042 381.487 356.849 381.052C358.655 380.617 360.154 381.654 360.154 381.654L357.131 388.347L353.941 400.161L354.475 404.524C354.475 404.524 358.184 396.709 360.62 393.692C363.056 390.675 368.25 383.532 368.25 383.532C368.25 383.532 369.462 379.434 368.548 378.209C367.633 376.981 372.366 376.797 374.385 381.833C375.454 384.502 377.191 388.482 378.279 392.188C379.249 395.471 379.707 398.539 378.746 400.294C377.277 402.973 373.584 406.495 371.701 410.43Z" fill="#D6D6E3"/>
<path opacity="0.1" d="M378.746 400.293C377.278 402.972 373.585 406.496 371.702 410.429C371.21 408.655 370.61 406.819 370.61 406.819C370.61 406.819 368.309 394.488 375.115 391.301C376.243 391.192 377.371 391.507 378.279 392.186C379.248 395.469 379.706 398.538 378.746 400.293Z" fill="black"/>
<path d="M351.728 399.516L345.958 401.201L337.947 401.512L337.123 408.485L350.289 409.434C350.289 409.434 353.576 400.174 351.728 399.516Z" fill="#D6D6E3"/>
<path d="M361.137 422.96C361.137 422.96 353.418 424.243 355.179 426.569C356.941 428.896 363.779 426.45 363.779 426.45L361.137 422.96Z" fill="#FFB9B9"/>
<path opacity="0.1" d="M370.583 415.44C370.757 418.816 371.999 422.72 372.444 425.559C369.985 427.89 367.647 429.948 366.766 429.981C364.945 430.052 362.018 429.8 360.94 430.207C359.862 430.614 359.229 423.698 359.229 423.698C359.229 423.698 359.873 421.481 362.743 420.275C364.681 419.458 368.395 417.243 370.583 415.44Z" fill="black"/>
<path d="M375.03 389.113C375.03 389.113 381.193 388.143 380.86 398.384C380.527 408.626 381.509 415.163 379.031 417.087C376.553 419.01 368.503 427.724 366.681 427.795C364.86 427.865 361.933 427.614 360.855 428.021C359.777 428.428 359.145 421.512 359.145 421.512C359.145 421.512 359.788 419.295 362.659 418.089C365.529 416.882 372.293 412.6 372.237 411.141C372.181 409.682 370.526 404.632 370.526 404.632C370.526 404.632 368.225 392.3 375.03 389.113Z" fill="#D6D6E3"/>
<path d="M359.872 382.39C364.299 382.39 367.889 378.794 367.889 374.359C367.889 369.924 364.299 366.329 359.872 366.329C355.444 366.329 351.854 369.924 351.854 374.359C351.854 378.794 355.444 382.39 359.872 382.39Z" fill="#FFB9B9"/>
<path d="M354.473 362.849C354.28 363.015 354.048 363.132 353.799 363.187C353.674 363.21 353.545 363.181 353.441 363.109C353.336 363.037 353.265 362.926 353.242 362.801C353.058 363.182 352.852 363.588 352.477 363.783C352.102 363.979 351.523 363.815 351.469 363.395C351.414 363.714 351.274 364.011 351.062 364.256C350.83 364.477 350.408 364.534 350.206 364.284C350.37 365.182 350.268 366.105 350.32 367.017C350.372 367.928 350.614 368.894 351.302 369.493C352.304 370.366 353.811 370.151 355.13 369.985C355.329 369.944 355.536 369.955 355.729 370.018C356.223 370.229 356.201 370.917 356.207 371.455C356.248 372.398 356.62 373.296 357.259 373.99C357.898 374.684 358.761 375.129 359.697 375.246C360.22 375.327 360.754 375.196 361.181 374.883C361.556 374.565 361.747 374.047 362.176 373.808C362.874 373.42 363.72 373.986 364.23 374.601C364.74 375.216 365.243 375.973 366.033 376.085C367.079 376.234 367.875 375.166 368.265 374.185C368.804 372.808 369.062 371.337 369.025 369.858C368.987 368.379 368.654 366.923 368.045 365.576C365.863 360.81 358.408 360.056 354.473 362.849Z" fill="#090814"/>
</g>
<defs>
<linearGradient id="paint0_linear_428_1634" x1="639.277" y1="454.404" x2="313.477" y2="465.813" gradientUnits="userSpaceOnUse">
<stop stop-color="#FF2600"/>
<stop offset="1" stop-color="#FF0000" stop-opacity="0"/>
</linearGradient>
<linearGradient id="paint1_linear_428_1634" x1="168.5" y1="0" x2="168.5" y2="281" gradientUnits="userSpaceOnUse">
<stop stop-color="#FF2600"/>
<stop offset="1" stop-color="#FF0000" stop-opacity="0"/>
</linearGradient>
<clipPath id="clip0_428_1634">
<rect width="237" height="192" fill="white" transform="translate(201 309)"/>
</clipPath>
</defs>
</svg>
