<svg width="645" height="566" viewBox="0 0 645 566" fill="none" xmlns="http://www.w3.org/2000/svg">
<path fill-rule="evenodd" clip-rule="evenodd" d="M354.623 141.315C356.629 188.196 304.452 214.32 275.295 251.103C248.348 285.098 234.7 333.738 192.893 345.347C148.464 357.684 97.0351 342.459 64.739 309.57C35.3496 279.642 49.3938 231.985 41.1861 190.857C32.2899 146.279 -12.2029 98.3865 15.3803 62.2396C43.0378 25.9955 101.338 57.9689 146.632 52.6736C188.26 47.807 227.41 16.5155 265.96 32.9448C310.606 51.9717 352.549 92.8456 354.623 141.315Z" fill="url(#paint0_linear_428_1586)"/>
<path opacity="0.6" fill-rule="evenodd" clip-rule="evenodd" d="M427.727 502.04C409.857 484.02 396.901 458.627 399.42 433.374C401.752 410.003 430.751 399.516 440.104 377.972C449.793 355.655 433.872 322.046 453.809 308.102C473.239 294.512 499.176 314.435 522.058 320.652C540.954 325.787 560.876 328.23 575.559 341.184C590.432 354.305 600.08 372.641 603.189 392.229C606.214 411.287 599.913 429.875 592.461 447.675C584.762 466.067 574.619 482.712 559.749 495.994C541.399 512.384 522.196 531.264 497.618 532.39C471.609 533.581 446.061 520.526 427.727 502.04Z" fill="url(#paint1_linear_428_1586)"/>
<g clip-path="url(#clip0_428_1586)">
<path d="M386.611 476.898L396.715 478.475C400.135 474.341 402.492 469.435 403.583 464.185C396.195 470.223 384.96 467.014 376.001 470.31C373.215 471.36 370.701 473.022 368.646 475.173C366.59 477.325 365.046 479.91 364.128 482.739L359.19 488.043C363.66 489.809 368.46 490.588 373.26 490.324C378.06 490.06 382.745 488.76 386.994 486.514C389.365 485.231 391.564 483.654 393.54 481.822C390.005 479.599 386.611 476.898 386.611 476.898Z" fill="#F2F2F2"/>
<path d="M383.024 460.765L392.771 457.677C393.986 452.453 393.905 447.013 392.535 441.828C388.62 450.522 377.131 452.653 370.585 459.592C368.56 461.772 367.052 464.379 366.174 467.22C365.295 470.061 365.068 473.063 365.509 476.003L363.459 482.949C368.249 482.54 372.893 481.099 377.071 478.726C381.249 476.353 384.863 473.103 387.662 469.201C389.211 466.996 390.475 464.606 391.425 462.086C387.268 461.671 383.024 460.765 383.024 460.765Z" fill="#F2F2F2"/>
<path d="M403.637 491.256C403.637 491.308 403.627 491.36 403.607 491.408C403.587 491.456 403.558 491.499 403.521 491.536C403.484 491.573 403.44 491.602 403.392 491.622C403.344 491.642 403.292 491.652 403.24 491.652H178.81C178.705 491.652 178.604 491.61 178.53 491.536C178.455 491.462 178.414 491.361 178.414 491.256C178.414 491.151 178.455 491.05 178.53 490.976C178.604 490.902 178.705 490.86 178.81 490.86H403.24C403.292 490.86 403.344 490.87 403.392 490.89C403.44 490.91 403.484 490.939 403.521 490.976C403.558 491.012 403.587 491.056 403.607 491.104C403.627 491.152 403.637 491.204 403.637 491.256Z" fill="#CCCCCC"/>
<path d="M271.413 474.372C310.993 474.372 343.079 442.336 343.079 402.818C343.079 363.3 310.993 331.265 271.413 331.265C231.832 331.265 199.746 363.3 199.746 402.818C199.746 442.336 231.832 474.372 271.413 474.372Z" fill="#E6E6E6"/>
<path d="M333.079 402.818C333.087 412.425 330.839 421.9 326.516 430.483C322.194 439.067 315.917 446.519 308.189 452.243C307.673 452.629 307.146 453.005 306.616 453.371C296.282 460.543 283.998 464.387 271.413 464.387C258.827 464.387 246.543 460.543 236.209 453.371C235.679 453.005 235.153 452.629 234.636 452.243C226.914 446.514 220.641 439.061 216.319 430.478C211.997 421.896 209.746 412.424 209.746 402.818C209.746 393.212 211.997 383.739 216.319 375.157C220.641 366.575 226.914 359.122 234.636 353.393C235.153 353.007 235.679 352.631 236.209 352.264C246.543 345.093 258.827 341.249 271.413 341.249C283.998 341.249 296.282 345.093 306.616 352.264C307.146 352.631 307.673 353.007 308.189 353.393C315.917 359.117 322.194 366.569 326.516 375.152C330.839 383.736 333.087 393.211 333.079 402.818Z" fill="white"/>
<path d="M271.413 459.063C302.525 459.063 327.746 433.881 327.746 402.818C327.746 371.755 302.525 346.574 271.413 346.574C240.301 346.574 215.08 371.755 215.08 402.818C215.08 433.881 240.301 459.063 271.413 459.063Z" fill="#3A68C4"/>
<path opacity="0.2" d="M271.56 346.731C270.706 346.731 269.857 346.753 269.012 346.791C283.25 348.04 296.48 354.646 306.022 365.271C315.564 375.895 320.704 389.744 320.4 404.011C320.097 418.278 314.373 431.897 304.389 442.107C294.404 452.318 280.905 458.358 266.627 459.003C268.253 459.144 269.897 459.22 271.56 459.22C286.5 459.22 300.829 453.294 311.394 442.746C321.958 432.198 327.893 417.892 327.893 402.975C327.893 388.058 321.958 373.752 311.394 363.205C300.829 352.657 286.5 346.731 271.56 346.731Z" fill="black"/>
<path d="M271.579 342.58C271.093 342.581 270.628 342.774 270.284 343.117C269.94 343.46 269.747 343.925 269.746 344.411V352.398C269.746 352.883 269.939 353.349 270.283 353.692C270.627 354.035 271.093 354.228 271.579 354.228C272.066 354.228 272.532 354.035 272.876 353.692C273.22 353.349 273.413 352.883 273.413 352.398V344.411C273.412 343.925 273.218 343.46 272.875 343.117C272.531 342.774 272.065 342.581 271.579 342.58Z" fill="white"/>
<path d="M308.19 353.393C307.673 353.007 307.146 352.631 306.616 352.265C306.298 352.244 305.98 352.306 305.694 352.446C305.407 352.585 305.162 352.797 304.983 353.06L300.48 359.66C300.206 360.061 300.103 360.554 300.194 361.031C300.284 361.508 300.561 361.929 300.963 362.202C301.365 362.475 301.859 362.578 302.336 362.488C302.814 362.397 303.236 362.121 303.51 361.72L308.013 355.12C308.184 354.87 308.29 354.581 308.321 354.279C308.352 353.977 308.307 353.673 308.19 353.393Z" fill="white"/>
<path d="M328.65 383.485C328.559 383.263 328.425 383.06 328.257 382.889C328.088 382.718 327.887 382.582 327.665 382.489C327.443 382.396 327.205 382.347 326.965 382.345C326.724 382.344 326.486 382.39 326.263 382.48L318.85 385.485C318.4 385.668 318.041 386.022 317.852 386.469C317.663 386.916 317.66 387.42 317.843 387.869C318.026 388.319 318.38 388.677 318.827 388.866C319.275 389.055 319.779 389.059 320.23 388.877L327.643 385.871C328.093 385.687 328.451 385.333 328.64 384.886C328.829 384.439 328.832 383.935 328.65 383.485Z" fill="white"/>
<path d="M242.346 359.66L237.843 353.06C237.663 352.797 237.418 352.585 237.132 352.446C236.845 352.306 236.527 352.244 236.209 352.265C235.679 352.631 235.153 353.007 234.636 353.393C234.519 353.673 234.474 353.977 234.505 354.279C234.535 354.581 234.641 354.87 234.813 355.12L239.316 361.72C239.59 362.121 240.012 362.397 240.489 362.488C240.967 362.578 241.461 362.475 241.863 362.202C242.264 361.929 242.541 361.508 242.632 361.031C242.722 360.554 242.62 360.061 242.346 359.66Z" fill="white"/>
<path d="M223.976 385.485L216.563 382.48C216.112 382.298 215.608 382.301 215.16 382.49C214.712 382.679 214.358 383.037 214.175 383.487C213.992 383.937 213.995 384.441 214.184 384.888C214.373 385.335 214.733 385.689 215.183 385.871L222.596 388.877C223.047 389.059 223.551 389.055 223.998 388.866C224.446 388.677 224.8 388.319 224.983 387.869C225.166 387.42 225.163 386.916 224.974 386.469C224.785 386.022 224.426 385.668 223.976 385.485Z" fill="white"/>
<path d="M271.579 451.408C271.093 451.409 270.628 451.602 270.284 451.945C269.94 452.288 269.747 452.753 269.746 453.239V461.226C269.746 461.711 269.939 462.177 270.283 462.52C270.627 462.864 271.093 463.056 271.579 463.056C272.066 463.056 272.532 462.864 272.876 462.52C273.22 462.177 273.413 461.711 273.413 461.226V453.239C273.412 452.753 273.218 452.288 272.875 451.945C272.531 451.602 272.065 451.409 271.579 451.408Z" fill="white"/>
<path d="M308.013 450.516L303.51 443.917C303.374 443.718 303.201 443.548 302.999 443.416C302.798 443.284 302.573 443.194 302.336 443.149C302.1 443.104 301.857 443.106 301.621 443.155C301.386 443.204 301.162 443.299 300.963 443.434C300.764 443.569 300.594 443.742 300.462 443.943C300.33 444.144 300.239 444.369 300.194 444.605C300.149 444.842 300.151 445.084 300.2 445.319C300.249 445.555 300.344 445.778 300.48 445.977L304.983 452.576C305.162 452.839 305.407 453.051 305.694 453.19C305.98 453.33 306.298 453.392 306.616 453.372C307.146 453.006 307.673 452.63 308.19 452.244C308.307 451.964 308.352 451.659 308.321 451.357C308.29 451.056 308.184 450.767 308.013 450.516Z" fill="white"/>
<path d="M327.643 419.765L320.229 416.759C319.779 416.577 319.274 416.58 318.827 416.769C318.379 416.958 318.024 417.317 317.841 417.766C317.658 418.216 317.662 418.72 317.851 419.167C318.04 419.614 318.399 419.968 318.849 420.151L326.263 423.156C326.713 423.338 327.217 423.334 327.665 423.146C328.112 422.957 328.467 422.598 328.649 422.149C328.832 421.699 328.829 421.196 328.64 420.749C328.452 420.302 328.093 419.948 327.643 419.765Z" fill="white"/>
<path d="M241.863 443.434C241.461 443.161 240.967 443.058 240.489 443.149C240.012 443.239 239.59 443.515 239.316 443.917L234.813 450.516C234.641 450.766 234.535 451.056 234.505 451.357C234.474 451.659 234.519 451.964 234.636 452.243C235.153 452.629 235.679 453.005 236.209 453.372C236.527 453.392 236.845 453.33 237.132 453.19C237.418 453.051 237.663 452.839 237.843 452.576L242.346 445.977C242.481 445.778 242.576 445.555 242.626 445.319C242.675 445.084 242.677 444.841 242.632 444.605C242.587 444.369 242.496 444.144 242.364 443.943C242.232 443.742 242.062 443.569 241.863 443.434Z" fill="white"/>
<path d="M224.983 417.765C224.892 417.542 224.758 417.339 224.59 417.169C224.421 416.998 224.22 416.862 223.998 416.768C223.776 416.675 223.538 416.626 223.298 416.625C223.057 416.623 222.819 416.669 222.596 416.759L215.183 419.765C214.733 419.948 214.374 420.302 214.185 420.749C213.996 421.196 213.993 421.699 214.176 422.149C214.359 422.598 214.713 422.957 215.16 423.146C215.608 423.334 216.112 423.338 216.563 423.156L223.976 420.151C224.426 419.967 224.784 419.612 224.973 419.165C225.162 418.718 225.165 418.214 224.983 417.765Z" fill="white"/>
<path d="M273.958 401.91C274.127 402.91 273.892 403.937 273.304 404.765C272.716 405.593 271.824 406.154 270.822 406.325L238.289 411.85C237.793 411.934 237.285 411.92 236.794 411.808C236.303 411.697 235.839 411.489 235.429 411.199C235.018 410.908 234.669 410.539 234.401 410.114C234.133 409.688 233.952 409.214 233.867 408.719C233.783 408.223 233.797 407.716 233.909 407.226C234.021 406.736 234.228 406.273 234.52 405.863C234.811 405.453 235.18 405.104 235.606 404.836C236.032 404.569 236.507 404.388 237.004 404.304L269.536 398.779C270.538 398.61 271.567 398.844 272.396 399.431C273.225 400.018 273.787 400.91 273.958 401.91Z" fill="#3F3D56"/>
<path d="M308.198 437.897C307.731 438.366 307.096 438.631 306.433 438.633C305.77 438.636 305.133 438.376 304.662 437.91L269.641 403.219C269.171 402.753 268.906 402.119 268.904 401.457C268.902 400.796 269.162 400.16 269.629 399.691C270.096 399.221 270.73 398.956 271.393 398.953C272.055 398.95 272.692 399.21 273.163 399.675L308.184 434.367C308.654 434.833 308.919 435.467 308.922 436.129C308.925 436.791 308.664 437.426 308.198 437.897Z" fill="#3F3D56"/>
<path d="M271.413 407.145C273.806 407.145 275.746 405.208 275.746 402.818C275.746 400.429 273.806 398.492 271.413 398.492C269.02 398.492 267.08 400.429 267.08 402.818C267.08 405.208 269.02 407.145 271.413 407.145Z" fill="#CCCCCC"/>
<path d="M241.565 327.796C234.913 338.237 224.765 345.166 212.248 349.718C212.001 349.903 211.72 350.038 211.42 350.114C211.121 350.19 210.809 350.207 210.504 350.163C210.198 350.12 209.903 350.016 209.638 349.859C209.372 349.701 209.14 349.493 208.955 349.246C202.156 340.183 203.691 327.23 212.664 320.305C214.833 318.633 217.313 317.409 219.961 316.702C222.608 315.996 225.369 315.821 228.084 316.189C230.8 316.557 233.415 317.459 235.778 318.844C238.141 320.229 240.205 322.069 241.85 324.257L242.038 324.507C242.223 324.754 242.358 325.035 242.434 325.334C242.511 325.633 242.527 325.944 242.484 326.25C242.44 326.555 242.336 326.849 242.178 327.114C242.021 327.379 241.812 327.611 241.565 327.796Z" fill="#E6E6E6"/>
<path d="M300.976 324.257C302.621 322.069 304.685 320.229 307.048 318.844C309.411 317.459 312.026 316.557 314.741 316.189C317.457 315.821 320.218 315.996 322.865 316.702C325.512 317.409 327.993 318.633 330.162 320.305C339.135 327.23 340.67 340.183 333.871 349.246C333.686 349.493 333.454 349.701 333.188 349.859C332.922 350.016 332.628 350.12 332.322 350.163C332.016 350.207 331.705 350.19 331.405 350.114C331.106 350.038 330.825 349.903 330.577 349.718C318.958 345.277 309.43 337.591 301.261 327.796C300.761 327.423 300.431 326.866 300.342 326.25C300.254 325.633 300.414 325.006 300.788 324.507L300.976 324.257Z" fill="#E6E6E6"/>
<path d="M298.06 464.81C297.637 465.047 297.325 465.443 297.193 465.91C297.061 466.377 297.119 466.877 297.356 467.301L307.936 486.179C308.174 486.602 308.57 486.914 309.038 487.046C309.506 487.178 310.007 487.119 310.431 486.882C310.856 486.645 311.168 486.249 311.3 485.782C311.433 485.315 311.374 484.814 311.136 484.391L300.556 465.513C300.318 465.09 299.921 464.779 299.454 464.647C298.986 464.515 298.485 464.573 298.06 464.81Z" fill="#E6E6E6"/>
<path d="M242.27 465.513L231.689 484.391C231.452 484.814 231.393 485.315 231.525 485.782C231.657 486.249 231.97 486.645 232.394 486.882C232.818 487.119 233.32 487.178 233.787 487.046C234.255 486.914 234.652 486.602 234.889 486.179L245.47 467.301C245.587 467.091 245.662 466.86 245.691 466.621C245.719 466.383 245.7 466.141 245.634 465.909C245.569 465.678 245.459 465.462 245.309 465.273C245.16 465.084 244.975 464.927 244.765 464.809C244.555 464.692 244.324 464.617 244.085 464.589C243.846 464.561 243.603 464.58 243.372 464.645C243.14 464.71 242.923 464.821 242.734 464.97C242.545 465.119 242.387 465.303 242.27 465.513Z" fill="#E6E6E6"/>
<path d="M310.079 491.012C313.209 491.012 315.746 488.479 315.746 485.355C315.746 482.23 313.209 479.697 310.079 479.697C306.95 479.697 304.413 482.23 304.413 485.355C304.413 488.479 306.95 491.012 310.079 491.012Z" fill="#E6E6E6"/>
<path d="M314.079 346.241C317.209 346.241 319.746 343.708 319.746 340.583C319.746 337.458 317.209 334.925 314.079 334.925C310.95 334.925 308.413 337.458 308.413 340.583C308.413 343.708 310.95 346.241 314.079 346.241Z" fill="#E6E6E6"/>
<path d="M271.079 332.929C274.209 332.929 276.746 330.396 276.746 327.271C276.746 324.146 274.209 321.613 271.079 321.613C267.95 321.613 265.413 324.146 265.413 327.271C265.413 330.396 267.95 332.929 271.079 332.929Z" fill="#E6E6E6"/>
<path d="M230.079 345.575C233.209 345.575 235.746 343.042 235.746 339.917C235.746 336.793 233.209 334.26 230.079 334.26C226.95 334.26 224.413 336.793 224.413 339.917C224.413 343.042 226.95 345.575 230.079 345.575Z" fill="#E6E6E6"/>
<path d="M233.746 491.012C236.876 491.012 239.413 488.479 239.413 485.355C239.413 482.23 236.876 479.697 233.746 479.697C230.617 479.697 228.08 482.23 228.08 485.355C228.08 488.479 230.617 491.012 233.746 491.012Z" fill="#E6E6E6"/>
<path d="M305.634 434.715C305.858 435.064 306.155 435.36 306.506 435.582C306.856 435.804 307.251 435.947 307.662 436C308.074 436.053 308.492 436.016 308.888 435.89C309.283 435.764 309.646 435.554 309.951 435.273L318.843 440.03L318.366 434.818L309.996 431.099C309.489 430.619 308.823 430.341 308.125 430.318C307.427 430.294 306.744 430.528 306.207 430.973C305.669 431.419 305.314 432.046 305.208 432.735C305.103 433.425 305.255 434.129 305.634 434.715Z" fill="#FFB7B7"/>
<path d="M312.113 436.534L315.598 431.731L332.384 439.654L353.273 435.741C354.306 435.548 355.368 435.584 356.386 435.846C357.403 436.109 358.349 436.592 359.158 437.261C359.967 437.93 360.619 438.769 361.067 439.718C361.515 440.666 361.748 441.702 361.75 442.751C361.752 444.645 361 446.463 359.661 447.805C358.322 449.147 356.504 449.904 354.606 449.91L330.668 449.954L312.113 436.534Z" fill="#3F3D56"/>
<path d="M306.746 519.478L303.221 517.795L308.064 503.082L313.267 505.567L306.746 519.478Z" fill="#FFB7B7"/>
<path d="M330.382 517.106C330.125 517.267 329.869 517.424 329.61 517.582C329.095 517.898 328.574 518.208 328.054 518.513C327.792 518.665 327.528 518.818 327.266 518.968V518.976L327.251 518.978L327.246 518.981L326.847 519.079L326.275 517.569L326.011 516.874L325.638 515.889L324.954 514.087L321.354 504.598L326.951 503.22L327.16 504.076H327.163L327.266 504.5L329.222 512.416L329.62 514.035L329.633 514.084L329.874 515.051L330.081 515.889L330.312 516.825L330.382 517.106Z" fill="#FFB7B7"/>
<path d="M363.764 483.784C363.41 484.353 363.047 484.919 362.682 485.48C362.004 486.525 361.307 487.554 360.592 488.567C360.592 488.57 360.59 488.57 360.587 488.572C360.17 488.958 359.709 489.294 359.215 489.573C359.194 489.589 359.171 489.599 359.15 489.612C358.785 489.813 358.397 489.968 357.995 490.075C357.85 490.111 357.702 490.147 357.557 490.183C357.034 490.307 356.516 490.413 356.001 490.506C355.084 490.669 354.178 490.786 353.277 490.858C353.204 490.866 353.132 490.871 353.059 490.876C349.353 491.148 345.746 490.711 341.981 489.995C340.122 489.643 338.223 489.221 336.258 488.784C335.616 488.64 334.971 488.497 334.318 488.355C334.269 488.345 334.217 488.332 334.166 488.322C333.233 488.117 332.286 487.916 331.314 487.717C330.092 487.466 328.831 487.223 327.521 486.993L327.614 488.836C327.692 490.254 327.987 491.652 328.489 492.981C329.049 494.615 329.491 495.908 328.557 498.599L328.106 499.902C328.34 500.549 328.42 501.242 328.34 501.925C328.261 502.608 328.024 503.263 327.648 503.84L327.557 503.977L331.314 513.468L331.558 514.084H329.634L327.267 514.086H323.256L317.468 502.493L317.191 501.939V501.911L317.789 479.632C317.797 479.435 317.812 479.236 317.838 479.04C317.944 478.146 318.226 477.283 318.67 476.5C319.113 475.717 319.708 475.03 320.42 474.479C321.102 473.947 321.884 473.555 322.719 473.327C323.555 473.099 324.427 473.039 325.286 473.15L327.267 473.406L331.314 473.928L334.166 474.298L334.223 474.306L342.631 475.392L343.234 472.935L343.346 472.894L346.886 471.599L359.129 467.118L359.16 467.108L359.966 466.813L360.061 466.968C360.09 467.015 360.118 467.061 360.144 467.108C360.94 468.533 361.588 470.035 362.079 471.591C362.903 474.133 363.582 476.72 364.111 479.34C364.135 479.453 364.155 479.557 364.174 479.65L364.181 479.678C364.189 479.722 364.194 479.751 364.197 479.759C364.479 480.932 364.282 482.365 363.764 483.784Z" fill="#2F2E41"/>
<path d="M364.281 475.573C364.242 475.408 364.193 475.24 364.141 475.077C363.73 473.843 363.251 472.633 362.707 471.452C362.096 470.108 361.363 468.667 360.49 467.108C360.068 466.353 359.614 465.568 359.128 464.753C358.885 464.344 358.632 463.928 358.369 463.504C358.359 463.485 358.348 463.466 358.336 463.447L358.261 463.323L346.147 464.942L341.635 465.544L341.366 467.788L341.301 468.344C341.299 468.344 341.299 468.344 341.301 468.347L341.12 469.862V469.865L340.879 471.866L340.859 471.863L334.165 470.997L327.266 470.105L323.56 469.627C322.701 469.515 321.829 469.575 320.994 469.803C320.158 470.031 319.377 470.423 318.694 470.956C317.982 471.507 317.388 472.194 316.944 472.977C316.501 473.76 316.218 474.623 316.113 475.516C316.089 475.697 316.074 475.884 316.066 476.067L312.57 484.338C310.478 489.285 309.146 494.518 308.618 499.861L306.055 508.045L306.42 508.078L311.853 508.582L313.287 508.717L316.447 504.112C316.807 503.587 317.148 503.047 317.467 502.493C317.991 501.59 318.458 500.654 318.863 499.691L325.697 483.454C326.225 483.544 326.748 483.631 327.266 483.712C329.661 484.1 331.961 484.417 334.165 484.661C341.33 485.46 347.535 485.522 353.058 484.845C354.609 484.656 356.109 484.408 357.556 484.1C358.087 483.989 358.611 483.869 359.128 483.741C359.25 483.712 359.369 483.684 359.488 483.653C360.558 483.377 361.542 482.838 362.35 482.085C363.157 481.331 363.763 480.388 364.11 479.34C364.526 478.127 364.585 476.82 364.281 475.573Z" fill="#2F2E41"/>
<path d="M307.873 517.076L304.058 515.25L303.46 514.963L302.504 517.306L295.834 518.772C295.504 518.844 295.206 519.02 294.983 519.273C294.76 519.526 294.625 519.844 294.596 520.18C294.567 520.516 294.646 520.852 294.822 521.14C294.998 521.428 295.262 521.651 295.575 521.779L302.093 524.434L304.162 522.575L303.654 525.07L306.109 526.071L308.8 517.52L307.873 517.076Z" fill="#2F2E41"/>
<path d="M331.314 513.468L331.558 514.083H331.314V513.468Z" fill="#2F2E41"/>
<path d="M329.986 514.215L325.99 515.597L325.362 515.814L326.334 518.149L322.627 523.877C322.444 524.16 322.356 524.495 322.376 524.831C322.396 525.168 322.524 525.489 322.74 525.748C322.956 526.007 323.249 526.19 323.577 526.271C323.905 526.351 324.25 526.325 324.562 526.196L331.065 523.504L331.225 520.729L332.623 522.859L335.072 521.845L330.959 513.879L329.986 514.215Z" fill="#2F2E41"/>
<path d="M363.285 479.32C363.047 479.319 362.814 479.261 362.604 479.151L341.512 468.147L341.268 467.151L340.809 463.999L340.815 463.969L342.821 454.736C342.784 454.657 342.708 454.527 342.621 454.38C341.725 452.865 339 448.255 344.201 441.906L353.333 431.277L361.171 430.94L361.26 431.052C363.356 433.679 364.769 436.781 365.374 440.084C365.98 443.387 365.758 446.788 364.73 449.985L363.914 464.701L364.789 467.673C365.301 469.419 365.216 471.286 364.549 472.979L364.749 477.791C364.757 477.989 364.725 478.185 364.655 478.37C364.585 478.555 364.479 478.723 364.342 478.866C364.205 479.009 364.041 479.122 363.859 479.2C363.678 479.278 363.482 479.319 363.285 479.32Z" fill="#3F3D56"/>
<path d="M344.989 491.455C345.346 491.245 345.653 490.958 345.888 490.616C346.122 490.274 346.279 489.885 346.346 489.477C346.414 489.068 346.391 488.649 346.279 488.25C346.167 487.851 345.968 487.482 345.698 487.167L350.769 478.46L345.535 478.755L341.522 486.978C341.023 487.467 340.722 488.121 340.674 488.817C340.627 489.513 340.836 490.202 341.264 490.754C341.691 491.306 342.306 491.682 342.993 491.812C343.68 491.941 344.39 491.814 344.989 491.455Z" fill="#FFB7B7"/>
<path d="M347.035 485.054L342.35 481.41L350.864 464.936L347.674 443.956C347.516 442.919 347.589 441.86 347.887 440.854C348.186 439.849 348.702 438.921 349.4 438.137C350.098 437.353 350.96 436.732 351.925 436.318C352.891 435.904 353.935 435.707 354.985 435.742C356.882 435.806 358.675 436.619 359.972 438.002C361.269 439.385 361.963 441.225 361.903 443.119L361.114 467.007L347.035 485.054Z" fill="#3F3D56"/>
<path d="M348.306 426.859V419.116C348.304 416.364 349.398 413.724 351.345 411.777C353.293 409.83 355.936 408.735 358.692 408.733C361.448 408.732 364.092 409.823 366.042 411.768C367.992 413.712 369.089 416.351 369.091 419.103V419.116C370.922 422.927 369.777 424.739 369.091 426.859C369.09 427.229 368.943 427.583 368.681 427.844C368.42 428.105 368.065 428.252 367.695 428.253H349.702C349.332 428.252 348.977 428.105 348.716 427.844C348.454 427.583 348.307 427.229 348.306 426.859Z" fill="#2F2E41"/>
<path d="M355.291 427.749C359.587 427.749 363.07 424.272 363.07 419.983C363.07 415.693 359.587 412.216 355.291 412.216C350.995 412.216 347.512 415.693 347.512 419.983C347.512 424.272 350.995 427.749 355.291 427.749Z" fill="#FFB7B7"/>
<path d="M363.432 422.019C363.361 422.008 363.291 421.993 363.22 421.982C362.007 421.767 360.794 421.556 359.584 421.337L359.473 418.599L358.007 421.052C354.663 422.16 351.535 421.534 348.593 420.152C347.622 419.692 346.68 419.173 345.772 418.599C346.02 417.085 346.603 415.645 347.479 414.385C348.356 413.125 349.503 412.076 350.838 411.315C350.949 411.252 351.057 411.197 351.168 411.141L351.169 411.141L351.171 411.14L351.171 411.139L351.172 411.138C351.361 411.049 351.554 410.964 351.747 410.886C353.257 410.296 354.905 410.147 356.497 410.455C358.089 410.763 359.561 411.517 360.742 412.627C363.116 414.891 364.185 418.629 363.432 422.019Z" fill="#2F2E41"/>
</g>
<defs>
<linearGradient id="paint0_linear_428_1586" x1="357.847" y1="158.038" x2="24.9799" y2="210.652" gradientUnits="userSpaceOnUse">
<stop stop-color="#007AFF"/>
<stop offset="1" stop-color="#007AFF" stop-opacity="0"/>
</linearGradient>
<linearGradient id="paint1_linear_428_1586" x1="420.672" y1="495.722" x2="568.598" y2="334.764" gradientUnits="userSpaceOnUse">
<stop stop-color="#007AFF"/>
<stop offset="1" stop-color="#007AFF" stop-opacity="0"/>
</linearGradient>
<clipPath id="clip0_428_1586">
<rect width="225.223" height="210.317" fill="white" transform="translate(178.414 316)"/>
</clipPath>
</defs>
</svg>
